<svg width="100" height="100" viewBox="0 0 100 100" fill="none" xmlns="http://www.w3.org/2000/svg">
  <path d="M50 80V60" stroke="#1e293b" stroke-width="3" stroke-linecap="round"/>
  <path d="M50 60C40 60 30 50 30 35C30 25 35 20 40 20C43 20 47 22 50 25C53 22 57 20 60 20C65 20 70 25 70 35C70 50 60 60 50 60Z" fill="#da292e" stroke="#da292e" stroke-width="2"/>
  <path d="M50 60C45 60 40 65 40 70C40 75 45 80 50 80" stroke="#22c55e" stroke-width="2" stroke-linecap="round"/>
  <path d="M50 60C55 60 60 65 60 70C60 75 55 80 50 80" stroke="#22c55e" stroke-width="2" stroke-linecap="round"/>
</svg>
