<svg width="100" height="100" viewBox="0 0 24 24" fill="none" xmlns="http://www.w3.org/2000/svg">
  <!-- Rose Head with 3 pointed parts at the top -->
  <path d="M6 5L9 7L12 2L15 7L18 5C19 7 19 10 17 11.5C15 13 12 13 12 13C12 13 9 13 7 11.5C5 10 5 7 6 5Z" stroke="#334155" stroke-width="1.5" stroke-linecap="round" stroke-linejoin="round"/>
  
  <!-- Stem -->
  <path d="M12 13V22" stroke="#334155" stroke-width="1.5" stroke-linecap="round"/>
  
  <!-- Upward pointing leaves (Increased distance) -->
  <path d="M12 21C12 21 14 20 17 17C18 15.5 17 15 16 15C14 15 12 18 12 20.5" stroke="#334155" stroke-width="1.5" stroke-linecap="round" stroke-linejoin="round"/>
  <path d="M12 21C12 21 10 20 7 17C6 15.5 7 15 8 15C10 15 12 18 12 20.5" stroke="#334155" stroke-width="1.5" stroke-linecap="round" stroke-linejoin="round"/>
</svg>
